<svg class="logo" width="200" height="57" viewBox="0 0 724.5 206.4" xmlns="http://www.w3.org/2000/svg" xmlns:xlink="http://www.w3.org/1999/xlink">
<g>
	<path d="M105.7,193.7c-47.5,0-86.2-38.7-86.2-86.2s38.7-86.2,86.2-86.2s86.2,38.7,86.2,86.2S153.2,193.7,105.7,193.7z M105.7,31.3
		c-42,0-76.1,34.2-76.1,76.1s34.2,76.1,76.1,76.1s76.1-34.2,76.1-76.1S147.6,31.3,105.7,31.3z"/>
	<path d="M105.7,39.8C68.3,39.8,38,70.1,38,107.5s30.3,67.6,67.6,67.6s67.6-30.3,67.6-67.6S143,39.8,105.7,39.8z M126.8,107.8
		l-20.4-15l-20.6,15l-3.8-6.5l23.8-18h0.9l23.7,18L126.8,107.8z M126.8,83l-20.4-15L85.8,83L82,76.5l23.8-18h0.9l23.7,18L126.8,83z"
		/>
</g>
<path d="M240.3,29.3h6.1l17.9,54.5l18.6-54.3h7.7l-23.3,65.6h-6.2l-17.9-52.9l-18,52.9h-6.1l-23.3-65.6h8l18.6,54.3L240.3,29.3z"/>
<path d="M353.4,95.3h-7.9l-7.6-17.2h-35.5l-7.7,17.2h-7.5l29.7-65.6h6.9L353.4,95.3z M320.1,38.2l-14.9,33.2h29.7L320.1,38.2z"/>
<path d="M379.2,95.3h-7.4V69.5l-27.1-39.4h8.9l22,32.6l22.2-32.6h8.6l-27.1,39.3V95.3z"/>
<path d="M441.2,72.3h-15.8v23H418V30.1h24.4c14.7,0,24.4,7.8,24.4,20.8C466.8,65,455.1,72.3,441.2,72.3z M441.8,36.9h-16.5v28.7
	h16.1c10.8,0,17.9-5.8,17.9-14.4C459.3,41.8,452.4,36.9,441.8,36.9z"/>
<path d="M510.4,96.4c-19.8,0-33.1-15.5-33.1-33.6S490.8,29,510.6,29c19.8,0,33.1,15.5,33.1,33.6C543.8,80.7,530.3,96.4,510.4,96.4z
	 M510.4,35.8c-14.9,0-25.5,11.9-25.5,26.8c0,14.9,10.8,27,25.7,27c14.9,0,25.5-11.9,25.5-26.8C536.1,47.9,525.3,35.8,510.4,35.8z"/>
<path d="M565.9,30.1v65.2h-7.4V30.1H565.9z"/>
<path d="M634.3,30.1h7.2v65.2h-5.9l-42.1-53.4v53.4h-7.2V30.1h6.9l41.1,52.2V30.1z"/>
<path d="M684.6,95.3h-7.4V36.9h-21.9v-6.8h51.2v6.8h-21.9V95.3z"/>
<path d="M244.3,142.1c13.8,3.4,20.9,8.3,20.9,19.2c0,12.3-9.6,19.6-23.3,19.6c-10,0-19.4-3.4-27.2-10.4l6.9-8.2
	c6.2,5.4,12.5,8.5,20.6,8.5c7.1,0,11.5-3.3,11.5-8.3c0-4.8-2.6-7.3-14.7-10.1c-13.9-3.4-21.7-7.4-21.7-19.6c0-11.4,9.3-19,22.3-19
	c9.5,0,17,2.9,23.6,8.2l-6.1,8.7c-5.9-4.4-11.7-6.7-17.7-6.7c-6.7,0-10.6,3.4-10.6,7.8C228.9,136.9,231.8,139.1,244.3,142.1z"/>
<path d="M303.1,158.6h-12.9v20.9h-11.5v-65.2h25.7c15.2,0,24.8,8.6,24.8,21.9C329.2,151,317.5,158.6,303.1,158.6z M303.5,124.8
	h-13.3v23.5h13.3c8.7,0,14.1-4.8,14.1-11.7C317.6,128.8,312.1,124.8,303.5,124.8z"/>
<path d="M353,114.4v65.2h-11.5v-65.2H353z"/>
<path d="M416,114.4h11.3v65.2h-9.6l-35.9-46.4v46.4h-11.3v-65.2H381l34.9,45.1V114.4z"/>
<path d="M492.3,124.6h-36.9v16.9h32.7v10.2h-32.7v17.5h37.3v10.2H444v-65.2h48.3V124.6z"/>
</svg>
